<svg width="86" height="97" viewBox="0 0 86 97" fill="none" xmlns="http://www.w3.org/2000/svg">
<path d="M23.3809 44.0965C26.4329 65.1185 30.0154 71.6178 37.2032 80.9559M70.0682 29.0965V34.0965M77.4573 32.4501L73.9217 35.9856M79.5682 39.5965H74.5682M76.7502 46.9856L73.2146 43.45M69.0682 49.632V44.632M61.6791 46.2785L65.2146 42.7429M59.5682 39.132H64.5682M62.3862 31.7429L65.9217 35.2785M31.5682 35.5965L31.5449 35.6938L31.4866 35.7953L31.3102 35.9851L31.6343 36.2027L31.5249 36.3951L31.3336 36.5741L31.4588 36.7894L31.4647 36.9925L31.6262 37.2269L31.6602 37.4436L31.2433 37.5568L31.4945 37.8274L31.1089 37.9295L31.2392 38.1768L31.3805 38.4384L31.0148 38.5236L31.0066 38.7348L31.0747 38.9814L30.6733 39.0248L30.7348 39.2718L30.7474 39.5029L30.6972 39.706L30.526 39.8431L30.5774 40.1097L30.1259 40.0673L29.9936 40.2152L30.0384 40.4861L29.7557 40.5263L29.7293 40.7532L29.4966 40.8194L29.724 41.2696L29.5908 41.4265L29.1154 41.263L29.0129 41.4356L28.976 41.679L28.7297 41.7068L28.5581 41.8087L28.7336 42.3193L28.531 42.3974L28.3812 42.5392L28.212 42.6564L28.06 42.7977L27.8899 42.9142L27.5603 42.7765L27.2663 42.672L27.3286 43.177L27.1633 43.3019L26.7839 43.004L26.6762 43.2323L26.5749 43.493L26.3495 43.4808L26.2323 43.7333L25.9475 43.5504L25.6871 43.3994L25.5981 43.7675L25.3444 43.6091L25.1955 43.8174L24.9667 43.7144L24.8371 44.0552L24.6201 43.9977L24.413 43.9763L24.1906 43.8199L24.0371 44.2075L23.8302 44.1794L23.6067 43.8623L23.4109 43.8474L23.2213 44.1098L23.0192 44.2869L22.8242 43.9415L22.6105 44.2791L22.4425 43.7793L22.1968 44.3065L21.9949 44.2579L21.8181 44.0497L21.6233 43.9953L21.4059 44.0633L21.2256 43.9378L21.0691 43.732L20.8637 43.7369L20.5834 43.985L20.3841 43.9327L20.2662 43.6445L19.9907 43.8086L19.9934 43.2485L19.7755 43.2647L19.4557 43.4911L19.2801 43.3854L19.1894 43.117L18.887 43.2553L18.9322 42.7667L18.6016 42.9349L18.413 42.8545L18.3716 42.5537L18.2252 42.4186L17.9291 42.4863L17.6609 42.5004L17.7471 42.0711L17.3612 42.2164L17.1949 42.0938L17.0795 41.916L17.0906 41.6142L17.1295 41.3001L17.0055 41.1509L16.6269 41.225L16.5938 40.9905L16.6319 40.7069L16.5101 40.5565L16.0904 40.6207L16.2315 40.2785L16.177 40.0814L15.9152 40.0159L15.8486 39.8257L15.5525 39.7651L15.5061 39.5611L15.2345 39.4715L15.4523 39.143L15.257 39.0128L15.0258 38.8909L14.9174 38.7135L14.8963 38.503L14.7897 38.3234L15.1135 38.0109L14.8171 37.8903L14.6802 37.7169L14.8722 37.4648L14.8892 37.2593L14.4516 37.1381L14.5805 36.9095L14.924 36.6618L14.6127 36.5L14.4295 36.3146L14.529 36.1043L14.467 35.9053L14.4899 35.7025L14.7706 35.5029L14.6876 35.3045L14.6132 35.1028L14.5947 34.9011L14.4058 34.6807L14.8291 34.528L14.821 34.3295L14.6241 34.095L14.7579 33.9164L14.7068 33.7002L14.7703 33.5083L15.1607 33.4072L15.2109 33.2209L14.8581 32.902L15.0082 32.7396L15.1279 32.5699L15.1113 32.3472L15.4913 32.2925L15.1269 31.9086L15.6623 31.9435L15.4074 31.5906L15.3997 31.3539L15.822 31.3622L15.855 31.1506L15.9418 30.9692L16.1096 30.8419L16.1745 30.6443L16.4123 30.5737L16.4316 30.3386L16.5619 30.1879L16.8171 30.1463L16.7027 29.7772L16.9288 29.7128L16.9774 29.478L17.1701 29.3861L17.5197 29.4716L17.5601 29.221L17.6526 29.0215L17.7961 28.88L17.8125 28.5666L18.0388 28.5284L18.1434 28.3188L18.6105 28.6624L18.5911 28.2586L18.9359 28.4505L18.9905 28.1462L19.1595 28.0382L19.215 27.6957L19.5812 27.9975L19.6049 27.5555L19.9703 27.911L19.9893 27.4078L20.2884 27.6401L20.4941 27.6318L20.6843 27.581L20.8512 27.4449L21.0678 27.4938L21.2484 27.4016L21.4429 27.3665L21.6367 27.3304L21.779 26.9411L21.9983 27.0399L22.2377 27.3904L22.4283 27.3441L22.6182 27.2373L22.8048 26.9022L23.0115 27.1754L23.2127 27.0428L23.4228 26.8215L23.5996 27.3007L23.832 26.8849L23.9949 27.2825L24.2017 27.2226L24.4277 27.0649L24.5707 27.415L24.8272 27.1391L24.933 27.5841L25.1353 27.573L25.3012 27.7036L25.6003 27.3872L25.7543 27.5644L25.9096 27.7205L26.0771 27.8336L26.3934 27.5824L26.4608 27.9341L26.7792 27.7211L26.7521 28.2325L27.0339 28.1147L27.2303 28.1717L27.4954 28.1174L27.5915 28.3493L27.7669 28.4484L27.9032 28.6049L27.9997 28.8121L28.2459 28.8151L28.4665 28.8609L28.4733 29.1682L28.5821 29.3436L28.9814 29.2008L28.838 29.6431L29.0301 29.7277L29.376 29.673L29.3104 30.0051L29.6059 30.0119L29.8503 30.0737L29.8965 30.2983L29.8531 30.5834L29.8417 30.8341L30.1733 30.8466L30.0919 31.1366L30.2423 31.2746L30.2757 31.4823L30.7137 31.4674L30.3816 31.8666L30.9789 31.7934L30.7085 32.1423L30.6517 32.3809L30.8829 32.4973L30.8443 32.7226L31.3745 32.7466L31.4227 32.9483L31.4383 33.1583L31.3193 33.4022L31.4541 33.5763L31.4936 33.7754L31.6168 33.9583L31.7475 34.1442L31.1879 34.4328L31.6822 34.5686L31.6677 34.7752L31.6254 34.9816L31.8435 35.1738L31.6568 35.3845L31.8584 35.5869L31.5682 35.5965ZM43.5682 30.0965L43.5064 30.1751L43.4825 30.2913L43.2951 30.4627L43.5944 30.7099L43.4568 30.8857L43.2358 31.0202L43.3081 31.2548L43.2573 31.4512L43.333 31.729L43.2808 31.9525L42.8513 31.8927L42.9565 32.2481L42.5679 32.1553L42.5535 32.4337L42.5221 32.7343L42.1711 32.5928L42.0341 32.7534L41.9203 32.987L41.5977 32.7442L41.467 32.9596L41.301 33.1236L41.1062 33.2147L40.8886 33.1607L40.6905 33.3541L40.4847 32.9488L40.2978 32.9071L40.0805 33.0707L39.93 32.8313L39.7157 32.8938L39.5813 32.6989L39.2174 33.0482L39.0225 32.954L39.0819 32.4548L38.9013 32.3872L38.6585 32.3834L38.6136 32.143L38.5108 31.9814L37.9986 32.1535L37.9233 31.9388L37.79 31.7684L37.6914 31.5763L37.5743 31.3921L37.4936 31.1901L37.7107 30.903L37.9008 30.6609L37.4056 30.5476L37.3528 30.3383L37.7829 30.12L37.6297 29.9249L37.4543 29.7054L37.5856 29.5178L37.4464 29.2719L37.7654 29.1522L38.0456 29.0549L37.8309 28.7462L38.1209 28.6794L38.0864 28.4291L38.3253 28.3622L38.2178 28.0144L38.4306 27.9323L38.6161 27.8371L38.8837 27.8613L38.8357 27.4479L39.0396 27.3803L39.3678 27.5849L39.5469 27.5338L39.6409 27.2272L39.7914 27.0012L40.0599 27.2932L40.2094 26.922L40.4437 27.393L40.6358 26.8443L40.8499 26.8819L41.0354 27.0881L41.2299 27.1484L41.4548 27.0972L41.6227 27.2438L41.7429 27.471L41.9413 27.5058L42.2768 27.3354L42.4619 27.4484L42.4842 27.7626L42.8051 27.7148L42.5761 28.2257L42.7729 28.3013L43.1623 28.2571L43.2617 28.4446L43.1896 28.7204L43.517 28.7909L43.1767 29.1441L43.5353 29.2322L43.6173 29.425L43.4292 29.6636L43.424 29.8573L43.6625 30.0444L43.5682 30.0965ZM59.5682 21.0965L59.5064 21.1751L59.4825 21.2913L59.2951 21.4627L59.5944 21.7099L59.4568 21.8857L59.2358 22.0202L59.3081 22.2548L59.2573 22.4512L59.333 22.729L59.2808 22.9525L58.8513 22.8927L58.9565 23.2481L58.5679 23.1553L58.5535 23.4337L58.5221 23.7343L58.1711 23.5928L58.0341 23.7534L57.9203 23.987L57.5977 23.7442L57.467 23.9596L57.301 24.1236L57.1062 24.2147L56.8886 24.1607L56.6905 24.3541L56.4847 23.9488L56.2978 23.9071L56.0805 24.0707L55.93 23.8313L55.7157 23.8938L55.5813 23.6989L55.2174 24.0482L55.0225 23.954L55.0819 23.4548L54.9013 23.3872L54.6585 23.3834L54.6136 23.143L54.5108 22.9814L53.9986 23.1535L53.9233 22.9388L53.79 22.7684L53.6914 22.5763L53.5743 22.3921L53.4936 22.1901L53.7107 21.903L53.9008 21.6609L53.4056 21.5476L53.3528 21.3383L53.7829 21.12L53.6297 20.9249L53.4543 20.7054L53.5856 20.5178L53.4464 20.2719L53.7654 20.1522L54.0456 20.0549L53.8309 19.7462L54.1209 19.6794L54.0864 19.4291L54.3253 19.3622L54.2178 19.0144L54.4306 18.9323L54.6161 18.8371L54.8837 18.8613L54.8357 18.4479L55.0396 18.3803L55.3678 18.5849L55.5469 18.5338L55.6409 18.2272L55.7914 18.0012L56.0599 18.2932L56.2094 17.922L56.4437 18.393L56.6358 17.8443L56.8499 17.8819L57.0354 18.0881L57.2299 18.1484L57.4548 18.0972L57.6227 18.2438L57.7429 18.471L57.9413 18.5058L58.2768 18.3354L58.4619 18.4484L58.4842 18.7626L58.8051 18.7148L58.5761 19.2257L58.7729 19.3013L59.1623 19.2571L59.2617 19.4446L59.1896 19.7204L59.517 19.7909L59.1767 20.1441L59.5353 20.2322L59.6173 20.425L59.4292 20.6636L59.424 20.8573L59.6625 21.0444L59.5682 21.0965ZM51.5682 44.0965L51.5064 44.1751L51.4825 44.2913L51.2951 44.4627L51.5944 44.7099L51.4568 44.8857L51.2358 45.0202L51.3081 45.2548L51.2573 45.4512L51.333 45.729L51.2808 45.9525L50.8513 45.8927L50.9565 46.2481L50.5679 46.1553L50.5535 46.4337L50.5221 46.7343L50.1711 46.5928L50.0341 46.7534L49.9203 46.987L49.5977 46.7442L49.467 46.9596L49.301 47.1236L49.1062 47.2147L48.8886 47.1607L48.6905 47.3541L48.4847 46.9488L48.2978 46.9071L48.0805 47.0707L47.93 46.8313L47.7157 46.8938L47.5813 46.6989L47.2174 47.0482L47.0225 46.954L47.0819 46.4548L46.9013 46.3872L46.6585 46.3834L46.6136 46.143L46.5108 45.9814L45.9986 46.1535L45.9233 45.9388L45.79 45.7684L45.6914 45.5763L45.5743 45.3921L45.4936 45.1901L45.7107 44.903L45.9008 44.6609L45.4056 44.5476L45.3528 44.3383L45.7829 44.12L45.6297 43.9249L45.4543 43.7054L45.5856 43.5178L45.4464 43.2719L45.7654 43.1522L46.0456 43.0549L45.8309 42.7462L46.1209 42.6794L46.0864 42.4291L46.3253 42.3622L46.2178 42.0144L46.4306 41.9323L46.6161 41.8371L46.8837 41.8613L46.8357 41.4479L47.0396 41.3803L47.3678 41.5849L47.5469 41.5338L47.6409 41.2271L47.7914 41.0012L48.0599 41.2932L48.2094 40.922L48.4437 41.393L48.6358 40.8443L48.8499 40.8819L49.0354 41.0881L49.2299 41.1484L49.4548 41.0972L49.6227 41.2438L49.7429 41.471L49.9413 41.5058L50.2768 41.3354L50.4619 41.4484L50.4842 41.7626L50.8051 41.7148L50.5761 42.2257L50.7729 42.3013L51.1623 42.2571L51.2617 42.4446L51.1896 42.7204L51.517 42.7909L51.1767 43.1441L51.5353 43.2322L51.6173 43.425L51.4292 43.6636L51.424 43.8573L51.6625 44.0444L51.5682 44.0965ZM42.9659 0.573486L85.4319 24.4308V72.1454L42.9659 96.0027L0.5 72.1454V24.4308L42.9659 0.573486Z" stroke="black"/>
</svg>
